<?xml version="1.0" encoding="utf-8"?>
<!-- Generator: Adobe Illustrator 24.0.0, SVG Export Plug-In . SVG Version: 6.00 Build 0)  -->
<svg version="1.1" xmlns="http://www.w3.org/2000/svg" xmlns:xlink="http://www.w3.org/1999/xlink" x="0px" y="0px"
	 viewBox="0 0 18 18" style="enable-background:new 0 0 18 18;" xml:space="preserve">
<style type="text/css">
	.st0{fill:#459EFF;}
</style>
<g id="Layer_2">
</g>
<g id="Layer_1">
	<g>
		<path class="st0" d="M16.3,6.9l-5.7,0c-0.1,0-0.2,0-0.2-0.1c-0.1-0.1-0.1-0.1-0.1-0.2l0.1-4c0-0.9-0.7-1.7-1.7-1.8l0,0L8.3,0.7
			L8.1,4.2c0,0.6-0.3,1.2-0.6,1.6C7.2,6.2,7,6.4,6.6,6.7C6.5,6.7,6.4,6.8,6.3,6.9v0C5.5,7.4,4.4,8.1,4.1,8.8v7.5c3.5,0,8.3,0,10.7,0
			c0.6,0,1-0.4,1-0.9v0c0-0.5-0.5-0.9-1.1-0.9H14c-0.2,0-0.3-0.1-0.3-0.3c0-0.2,0.1-0.3,0.3-0.3h1.5c0.6,0,1-0.4,1-0.9
			c0-0.5-0.5-0.9-1-0.9h-1.6c-0.2,0-0.3-0.1-0.3-0.3c0-0.2,0.1-0.3,0.3-0.3h2c0.6,0,1-0.4,1-0.9v0c0-0.5-0.4-0.9-1-0.9h-2.3
			c-0.2,0-0.3-0.1-0.3-0.3c0-0.2,0.1-0.3,0.3-0.3h2.6c0.6,0,1-0.4,1-0.9S16.9,6.9,16.3,6.9z"/>
		<rect x="0.7" y="6.9" class="st0" width="2.8" height="10.4"/>
		<polygon points="0.7,6.9 0.7,6.9 0.7,6.9 		"/>
		<path d="M18,7.8c0-0.9-0.8-1.6-1.7-1.6l-5.4,0l0.1-3.6v0c0-1.3-1-2.3-2.3-2.5L8.1,0C8,0,7.9,0,7.8,0.1C7.8,0.2,7.7,0.2,7.7,0.3
			L7.4,4.2c0,0.5-0.2,0.9-0.5,1.3C6.8,5.7,6.5,6,6.3,6.1C6.2,6.2,6,6.3,5.9,6.4C5.3,6.7,4.6,7.2,4.1,7.7V6.6c0-0.2-0.1-0.3-0.3-0.3
			H0.4C0.2,6.3,0,6.4,0,6.6v11C0,17.8,0.2,18,0.4,18l0,0h3.4c0.1,0,0.2,0,0.2-0.1c0.1-0.1,0.1-0.1,0.1-0.2V17c3.5,0,8.3,0,10.7,0
			c0.9,0,1.7-0.7,1.7-1.6v0c0-0.4-0.2-0.7-0.4-1c0.6-0.2,1.1-0.8,1.1-1.5c0-0.4-0.2-0.8-0.5-1.1c0.5-0.3,0.9-0.8,0.9-1.4v0
			c0-0.4-0.2-0.8-0.5-1.1C17.6,8.9,18,8.4,18,7.8z M3.5,17.3H0.7V6.9h0l0,0v0h2.8V17.3z M16.3,8.8h-2.6c-0.2,0-0.3,0.1-0.3,0.3
			c0,0.2,0.1,0.3,0.3,0.3H16c0.6,0,1,0.4,1,0.9v0c0,0.5-0.4,0.9-1,0.9h-2c-0.2,0-0.3,0.1-0.3,0.3c0,0.2,0.1,0.3,0.3,0.3h1.6
			c0.6,0,1,0.4,1,0.9c0,0.5-0.5,0.9-1,0.9H14c-0.2,0-0.3,0.1-0.3,0.3c0,0.2,0.1,0.3,0.3,0.3h0.8c0.6,0,1.1,0.4,1.1,0.9v0
			c0,0.5-0.5,0.9-1,0.9c-2.4,0-7.2,0-10.7,0V8.8c0.3-0.7,1.4-1.4,2.2-1.9v0c0.1-0.1,0.2-0.2,0.4-0.2C7,6.4,7.2,6.2,7.5,5.9
			c0.3-0.5,0.6-1,0.6-1.6l0.3-3.5l0.4,0.1l0,0c1,0.1,1.7,0.9,1.7,1.8l-0.1,4c0,0.1,0,0.2,0.1,0.2c0.1,0.1,0.1,0.1,0.2,0.1l5.7,0
			c0.6,0,1,0.4,1,0.9S16.9,8.8,16.3,8.8z"/>
	</g>
</g>
</svg>
