<svg xmlns="http://www.w3.org/2000/svg" xmlns:xlink="http://www.w3.org/1999/xlink" width="19" height="19" viewBox="0 0 19 19">
    <defs>
        <path id="prefix__a" d="M9.5 1.583c-4.372 0-7.917 3.545-7.917 7.917s3.545 7.917 7.917 7.917 7.917-3.545 7.917-7.917S13.872 1.583 9.5 1.583zm3.7 10.374l-1.244 1.244-2.457-2.457-2.457 2.457-1.245-1.244L8.254 9.5 5.797 7.043l1.245-1.245 2.457 2.457 2.457-2.457L13.2 7.043 10.743 9.5l2.457 2.457z"/>
    </defs>
    <g fill="none" fill-rule="evenodd" opacity=".3">
        <path d="M0 0L19 0 19 19 0 19z"/>
        <mask id="prefix__b" fill="#fff">
            <use xlink:href="#prefix__a"/>
        </mask>
        <g fill="#000" mask="url(#prefix__b)">
            <path d="M0 0H19V19H0z"/>
        </g>
    </g>
</svg>
