<?xml version="1.0" encoding="utf-8"?>
<!-- Generator: Adobe Illustrator 24.0.0, SVG Export Plug-In . SVG Version: 6.00 Build 0)  -->
<svg version="1.1" id="Layer_1" xmlns="http://www.w3.org/2000/svg" xmlns:xlink="http://www.w3.org/1999/xlink" x="0px" y="0px"
	 viewBox="0 0 18 18" style="enable-background:new 0 0 18 18;" xml:space="preserve">
<style type="text/css">
	.st0{fill:#459EFF;}
	.st1{fill:#9C9C9C;}
</style>
<g id="Layer_2_1_">
</g>
<g id="Layer_1_1_">
	<g>
		<path class="st0" d="M16.3,9.2h-2.6c-0.2,0-0.3-0.1-0.3-0.3s0.1-0.3,0.3-0.3H16c0.6,0,1-0.4,1-0.9l0,0c0-0.5-0.4-0.9-1-0.9h-2
			c-0.2,0-0.3-0.1-0.3-0.3c0-0.2,0.1-0.3,0.3-0.3h1.6c0.6,0,1-0.4,1-0.9s-0.5-0.9-1-0.9H14c-0.2,0-0.3-0.1-0.3-0.3
			c0-0.2,0.1-0.3,0.3-0.3h0.8c0.6,0,1.1-0.4,1.1-0.9l0,0c0-0.5-0.5-0.9-1-0.9C12.5,2,7.7,2,4.2,2v7.5c0.3,0.7,1.4,1.4,2.2,1.9l0,0
			c0.1,0.1,0.2,0.2,0.4,0.2c0.3,0.2,0.6,0.5,0.8,0.8c0.3,0.5,0.6,1,0.6,1.6l0.3,3.5l0.4-0.1l0,0c1-0.1,1.7-0.9,1.7-1.8l-0.1-4
			c0-0.1,0-0.2,0.1-0.2c0.1-0.1,0.1-0.1,0.2-0.1h5.7c0.6,0,1-0.4,1-0.9S16.9,9.2,16.3,9.2z"/>
		<rect x="0.7" y="0.7" class="st0" width="2.8" height="10.4"/>
		<path d="M0.7,11.1L0.7,11.1L0.7,11.1z"/>
		<path class="st1" d="M17.1,8.8c0.3-0.3,0.5-0.7,0.5-1.1l0,0c0-0.6-0.4-1.1-0.9-1.4C17,6,17.2,5.6,17.2,5.2c0-0.7-0.5-1.3-1.1-1.5
			c0.3-0.3,0.4-0.6,0.4-1l0,0c0-0.9-0.8-1.6-1.7-1.6C12.4,1,7.6,1,4.1,1V0.3c0-0.1,0-0.2-0.1-0.2C4,0.1,3.9,0,3.8,0H0.4
			C0.2,0,0,0.2,0,0.3v11c0,0.2,0.2,0.3,0.3,0.3h3.4c0.2,0,0.3-0.2,0.3-0.3v-1.1c0.5,0.5,1.2,1,1.8,1.4c0.1,0.1,0.2,0.2,0.4,0.2
			c0.3,0.2,0.5,0.4,0.7,0.6c0.3,0.4,0.4,0.8,0.5,1.3l0.3,3.9c0,0.1,0.1,0.2,0.1,0.2C7.9,18,8,18,8.1,18l0.7-0.1
			c1.3-0.2,2.2-1.2,2.3-2.5l0,0L11,11.7h5.4c0.9,0,1.7-0.7,1.7-1.6C18,9.6,17.6,9.1,17.1,8.8z M3.5,11.1H0.7l0,0l0,0l0,0V0.7h2.8
			V11.1z M16.3,11.1h-5.7c-0.1,0-0.2,0-0.2,0.1c-0.1,0.1-0.1,0.1-0.1,0.2l0.1,4c0,0.9-0.7,1.7-1.7,1.8l0,0l-0.4,0.1L8,13.8
			c0-0.6-0.3-1.2-0.6-1.6c-0.2-0.3-0.5-0.6-0.8-0.8c-0.1-0.1-0.2-0.2-0.4-0.2l0,0C5.4,10.7,4.4,10,4,9.3V1.7c3.5,0,8.3,0,10.7,0
			c0.6,0,1,0.4,1,0.9l0,0c0,0.5-0.5,0.9-1.1,0.9H14c-0.2,0-0.3,0.1-0.3,0.3s0.1,0.3,0.3,0.3h1.5c0.6,0,1,0.4,1,0.9s-0.5,0.9-1,0.9
			h-1.6c-0.2,0-0.3,0.1-0.3,0.3c0,0.2,0.1,0.3,0.3,0.3h2c0.6,0,1,0.4,1,0.9l0,0c0,0.5-0.4,0.9-1,0.9h-2.3c-0.2,0-0.3,0.1-0.3,0.3
			s0.1,0.3,0.3,0.3h2.6c0.6,0,1,0.4,1,0.9S16.9,11.1,16.3,11.1z"/>
	</g>
</g>
</svg>
