<svg xmlns="http://www.w3.org/2000/svg" width="18" height="18" viewBox="0 0 18 18">
    <path d="M.352.04h3.446c.082-.003.163.028.222.086.058.057.09.136.087.218v.69c3.527-.002 8.324-.006 10.749 0 .927.002 1.697.705 1.697 1.567v.028c-.004.382-.155.748-.421 1.027.644.22 1.1.797 1.1 1.473-.006.418-.186.816-.497 1.1.547.259.912.788.912 1.398v.03c.002.432-.185.845-.513 1.133.51.27.858.78.858 1.363 0 .864-.753 1.567-1.682 1.568l-5.356.005.104 3.647v.014c-.021 1.26-.98 2.313-2.252 2.474l-.722.11c-.09.014-.18-.01-.251-.065-.07-.055-.115-.137-.122-.225l-.3-3.86c-.036-.473-.203-.928-.48-1.316-.178-.252-.4-.47-.655-.643-.106-.07-.23-.146-.354-.227-.572-.37-1.288-.832-1.815-1.361v1.1c0 .177-.13.334-.31.334H.353c-.185-.006-.334-.152-.34-.333V.344c0-.176.16-.304.34-.304zM6.28 11.104c.126.081.248.158.357.231.32.217.6.489.822.803.345.483.552 1.048.598 1.636l.273 3.515.38-.058.009-.001c.95-.123 1.667-.907 1.69-1.847l-.111-3.966c-.003-.086.03-.17.091-.23.061-.063.145-.097.232-.098l5.69-.005c.572 0 1.037-.41 1.037-.923 0-.513-.465-.922-1.037-.922H13.733c-.18 0-.325-.143-.325-.318 0-.176.146-.32.325-.32h2.291c.552-.039.975-.445.975-.945v-.03c0-.512-.447-.936-1.019-.936h-2.035c-.18 0-.324-.142-.324-.318 0-.176.145-.319.324-.319h1.597c.572 0 1.037-.421 1.037-.937 0-.513-.465-.934-1.037-.934h-1.507c-.179 0-.324-.143-.324-.319 0-.176.145-.319.324-.319h.816c.572 0 1.053-.402 1.053-.915V2.6c0-.512-.48-.93-1.05-.93-2.423-.006-7.22-.002-10.747 0v7.535c.324.7 1.392 1.391 2.173 1.898zM.66 11.07h2.798V.677H.661v10.394z"/>
</svg>
