<?xml version="1.0" encoding="utf-8"?>
<!-- Generator: Adobe Illustrator 24.0.0, SVG Export Plug-In . SVG Version: 6.00 Build 0)  -->
<svg version="1.1" id="Layer_1" xmlns="http://www.w3.org/2000/svg" xmlns:xlink="http://www.w3.org/1999/xlink" x="0px" y="0px"
	 viewBox="0 0 18 18" style="enable-background:new 0 0 18 18;" xml:space="preserve">
<style type="text/css">
	.st0{fill:#9C9C9C;}
</style>
<path class="st0" d="M0.4,0h3.4C3.9,0,4,0.1,4,0.1c0.1,0.1,0.1,0.1,0.1,0.2V1c3.5,0,8.3,0,10.7,0c0.9,0,1.7,0.7,1.7,1.6v0
	c0,0.4-0.2,0.7-0.4,1c0.6,0.2,1.1,0.8,1.1,1.5c0,0.4-0.2,0.8-0.5,1.1c0.5,0.3,0.9,0.8,0.9,1.4v0c0,0.4-0.2,0.8-0.5,1.1
	c0.5,0.3,0.9,0.8,0.9,1.4c0,0.9-0.8,1.6-1.7,1.6l-5.4,0l0.1,3.6v0c0,1.3-1,2.3-2.3,2.5L8.1,18c-0.1,0-0.2,0-0.3-0.1
	c-0.1-0.1-0.1-0.1-0.1-0.2l-0.3-3.9c0-0.5-0.2-0.9-0.5-1.3c-0.2-0.3-0.4-0.5-0.7-0.6c-0.1-0.1-0.2-0.1-0.4-0.2
	c-0.6-0.4-1.3-0.8-1.8-1.4v1.1c0,0.2-0.1,0.3-0.3,0.3H0.4c-0.2,0-0.3-0.2-0.3-0.3v-11C0,0.2,0.2,0,0.4,0L0.4,0z M6.3,11.1
	c0.1,0.1,0.2,0.2,0.4,0.2c0.3,0.2,0.6,0.5,0.8,0.8c0.3,0.5,0.6,1,0.6,1.6l0.3,3.5l0.4-0.1l0,0c0.9-0.1,1.7-0.9,1.7-1.8l-0.1-4
	c0-0.1,0-0.2,0.1-0.2c0.1-0.1,0.1-0.1,0.2-0.1l5.7,0c0.6,0,1-0.4,1-0.9c0-0.5-0.5-0.9-1-0.9h-2.6c-0.2,0-0.3-0.1-0.3-0.3
	c0-0.2,0.1-0.3,0.3-0.3H16c0.6,0,1-0.4,1-0.9v0c0-0.5-0.4-0.9-1-0.9h-2c-0.2,0-0.3-0.1-0.3-0.3c0-0.2,0.1-0.3,0.3-0.3h1.6
	c0.6,0,1-0.4,1-0.9c0-0.5-0.5-0.9-1-0.9H14c-0.2,0-0.3-0.1-0.3-0.3s0.1-0.3,0.3-0.3h0.8c0.6,0,1.1-0.4,1.1-0.9v0
	c0-0.5-0.5-0.9-1.1-0.9c-2.4,0-7.2,0-10.7,0v7.5C4.4,9.9,5.5,10.6,6.3,11.1L6.3,11.1z M0.7,11.1h2.8V0.7H0.7L0.7,11.1L0.7,11.1z"/>
</svg>
