<svg xmlns="http://www.w3.org/2000/svg" width="20" height="20" viewBox="0 0 20 20">
    <g fill="none" fill-rule="evenodd">
        <path fill="#000" fill-rule="nonzero" d="M19.817 4.558L15.442.183c-.244-.244-.64-.244-.884 0L.184 14.557c-.117.117-.183.276-.183.442L0 19.375c0 .165.066.325.183.442.117.117.277.183.442.183l4.376-.001c.166 0 .325-.066.442-.183L19.817 5.442c.244-.245.244-.64 0-.884zM4.74 18.75l-3.492.001V15.26L11.563 4.946l3.492 3.491L4.74 18.75zM15.937 7.554l-3.49-3.492L15 1.51 18.49 5l-2.554 2.554z"/>
        <rect width="11" height="1" x="9" y="19" fill="#141414" rx=".5"/>
    </g>
</svg>
