<?xml version="1.0" encoding="utf-8"?>
<!-- Generator: Adobe Illustrator 24.0.0, SVG Export Plug-In . SVG Version: 6.00 Build 0)  -->
<svg version="1.1" id="Layer_1" xmlns="http://www.w3.org/2000/svg" xmlns:xlink="http://www.w3.org/1999/xlink" x="0px" y="0px"
	 viewBox="0 0 20 20" style="enable-background:new 0 0 20 20;" xml:space="preserve">
<style type="text/css">
	.st0{fill:#459EFF;}
	.st1{fill:#9C9C9C;}
</style>
<g>
	<g>
		<path class="st0" d="M10.1,18.4c-0.2,0-0.3,0-0.5-0.1c-2.8-1.7-4.8-3.4-6.4-5.2C2.1,11.7,1.4,10.4,1,9C0.6,7.4,1,5.7,2,4.5
			c0.9-1.2,2.3-1.8,3.8-1.8c0.1,0,0.2,0,0.3,0c1.8,0.1,3.2,1.1,4,2.8C10.4,4.7,11,4,11.6,3.6c0.8-0.6,1.8-0.9,2.8-0.9
			c2,0,3.7,1.2,4.5,3.2c0.5,1.3,0.5,2.7-0.1,4.3s-1.7,2.9-2.6,3.8c-1.5,1.5-3.3,2.9-5.6,4.4C10.5,18.3,10.3,18.4,10.1,18.4z"/>
		<path class="st1" d="M14.5,3c1.7,0,3.4,1.1,4.2,2.9c0.5,1.3,0.4,2.7-0.1,4c-0.6,1.4-1.5,2.6-2.6,3.7c-1.6,1.7-3.5,3.1-5.6,4.3
			C10.3,18,10.2,18,10.1,18c-0.1,0-0.2,0-0.3-0.1c-2.3-1.4-4.5-3.1-6.3-5.2c-1-1.1-1.7-2.4-2.1-3.8C0.6,5.8,2.8,3,5.7,3
			C5.8,3,5.9,3,6,3c1.8,0.1,3.1,1.1,3.8,2.8C9.9,6,10,6.2,10.1,6.4c0.3-1.1,0.9-1.9,1.7-2.6C12.7,3.3,13.6,3,14.5,3 M14.5,2.3
			c-1.1,0-2.1,0.3-3.1,1c-0.5,0.4-1,0.8-1.3,1.4c-0.9-1.5-2.3-2.3-4-2.4c-0.1,0-0.2,0-0.3,0c-1.6,0-3.1,0.7-4.1,2
			c-1.1,1.3-1.4,3.1-1,4.9C1,10.6,1.8,12,3,13.3c1.7,1.9,3.7,3.6,6.5,5.3c0.2,0.1,0.4,0.2,0.7,0.2s0.5-0.1,0.7-0.2
			c2.4-1.5,4.2-2.9,5.7-4.4c0.9-0.9,2.1-2.2,2.7-3.9c0.6-1.6,0.7-3.1,0.1-4.5C18.5,3.6,16.6,2.3,14.5,2.3L14.5,2.3z"/>
	</g>
</g>
</svg>
