<svg xmlns="http://www.w3.org/2000/svg" width="12" height="15" viewBox="0 0 12 15">
    <path fill="#AEAEAE" d="M10.364 5.587v-1.56C10.364 1.808 8.406 0 6 0 3.594 0 1.636 1.807 1.636 4.028v1.559C.71 5.75 0 6.573 0 7.564v5.428C0 14.1.884 15 1.972 15h8.056C11.116 15 12 14.1 12 12.992V7.564c0-.99-.709-1.814-1.636-1.977zm-8.182-1.56C2.182 2.114 3.895.557 6 .557s3.818 1.557 3.818 3.472v1.528H2.182V4.028zm4.909 6.529c0 .612-.49 1.11-1.091 1.11-.602 0-1.09-.498-1.09-1.11V8.889c0-.613.488-1.111 1.09-1.111.602 0 1.09.498 1.09 1.11v1.668z"/>
</svg>
