<svg xmlns="http://www.w3.org/2000/svg" width="14" height="16" viewBox="0 0 14 16">
    <path fill="#9C9C9C" d="M12.854 1.166c-1.527-1.555-4.011-1.555-5.538 0L1.486 7.1c-.18.183-.18.48 0 .663.18.183.47.183.65 0L7.968 1.83C9.1.677 11.07.677 12.202 1.829c1.168 1.188 1.168 3.122 0 4.31l-8.141 8.38c-.697.709-1.91.709-2.606 0-.719-.731-.719-1.92 0-2.652l7.816-8.05c.26-.265.716-.265.977 0 .269.275.269.721 0 .996l-7.49 7.717c-.156.158-.156.505 0 .663.18.183.471.183.651 0l7.49-7.717c.629-.64.629-1.681 0-2.321-.61-.62-1.672-.62-2.28 0L.803 11.204c-1.069 1.088-1.069 2.89 0 3.978.522.532 1.217.818 1.955.818s1.432-.286 1.954-.818l8.142-8.38c1.526-1.554 1.526-4.082 0-5.636z"/>
</svg>
