<svg xmlns="http://www.w3.org/2000/svg" width="18" height="18" viewBox="0 0 18 18">
    <path d="M14.235 6.446c-1.028 0-1.944-.493-2.53-1.255L6.795 7.95c.115.332.178.69.178 1.06 0 .374-.063.728-.181 1.065l4.904 2.756c.582-.766 1.503-1.263 2.534-1.263 1.758 0 3.194 1.442 3.194 3.216 0 1.774-1.432 3.215-3.194 3.215s-3.194-1.441-3.194-3.215c0-.374.063-.732.181-1.065l-4.9-2.756c-.583.77-1.503 1.263-2.534 1.263C2.026 12.227.59 10.785.59 9.01c0-1.774 1.436-3.215 3.198-3.215 1.031 0 1.951.497 2.537 1.266l4.905-2.76c-.12-.336-.186-.698-.186-1.072 0-1.77 1.432-3.215 3.194-3.215s3.194 1.441 3.194 3.215c0 1.774-1.435 3.216-3.197 3.216zm0 10.542c1.209 0 2.192-.99 2.192-2.207 0-1.218-.983-2.207-2.192-2.207-1.21 0-2.193.99-2.193 2.207 0 1.217.987 2.207 2.193 2.207zM3.788 6.804c-1.21 0-2.193.99-2.193 2.207 0 1.218.983 2.207 2.193 2.207s2.192-.99 2.192-2.207c0-1.217-.987-2.207-2.192-2.207zm10.447-5.777c-1.21 0-2.193.99-2.193 2.207 0 1.217.983 2.207 2.193 2.207 1.209 0 2.192-.99 2.192-2.207 0-1.217-.983-2.207-2.192-2.207z"/>
</svg>
